<svg xmlns="http://www.w3.org/2000/svg" viewBox="0 0 395 278" class="ds-house-logo" role="presentation"><path d="M290.6 14 381 123l-42 9v85l-168 47-119-47v-98l-38 4L90 14h200.6m0-14H90a14 14 0 0 0-11.48 6l-76 109A14 14 0 0 0 14 137c.48 0 1 0 1.47-.08L38 134.55V217a14 14 0 0 0 8.86 13l119 47a14 14 0 0 0 5.14 1 13.77 13.77 0 0 0 3.77-.52l168-47A14 14 0 0 0 353 217v-73.68l30.93-6.63a14 14 0 0 0 7.85-22.63l-90.41-109A14 14 0 0 0 290.6 0Z"/><g><path d="m68.17 82.85 17.72-4.75a24.75 24.75 0 0 1 12.81 47.81L81 130.66Zm22 32.1 5.29-1.42A11.714 11.714 0 1 0 89.4 90.9l-5.29 1.42ZM113.69 70.66l29.7-8 2.79 10.39L129 77.68l2.08 7.78 15.17-4.07L149.12 92 134 96l2.35 8.8 17.15-4.6 2.75 10.27-29.7 8ZM169.12 71.52a3.8 3.8 0 0 0-4.6-2.66 3.74 3.74 0 0 0-2.6 4.59 3.69 3.69 0 0 0 4.53 2.61 15.31 15.31 0 1 1-10.78 18.67l11.15-3a3.71 3.71 0 0 0 4.55 2.68 3.75 3.75 0 0 0 2.67-4.55 3.8 3.8 0 0 0-4.6-2.66 15.21 15.21 0 1 1 10.78-18.67ZM180.37 52.79l12.56-3.37 12.81 47.81-12.56 3.37ZM250.74 57.64l.48 1.78a24.79 24.79 0 1 1-11.62-15.06l-6.5 11.17a11.87 11.87 0 0 0-8.82-1A11.75 11.75 0 1 0 238.34 70l-9.25 2.48-2.25-8.48ZM294.86 73.35l-28.63-16.58 6.06 22.63-12.55 3.36L246.92 35l5.1-1.36 28.68 16.5-6.05-22.57 12.56-3.36L300 72ZM79.66 151.39a3.8 3.8 0 0 0-4.6-2.66 3.74 3.74 0 0 0-2.6 4.59 3.69 3.69 0 0 0 4.54 2.61 15.31 15.31 0 1 1-10.78 18.68l11.15-3a3.73 3.73 0 0 0 7.22-1.87 3.8 3.8 0 0 0-4.6-2.66 15.21 15.21 0 1 1 10.78-18.67ZM124.76 156l4.71 17.59L117 176.9l-4.71-17.59-25.52-25.54 14.47-3.87 13.45 13.47 5-18.41 14.47-3.88ZM156.29 130.86a3.8 3.8 0 0 0-4.6-2.66 3.74 3.74 0 0 0-2.6 4.59 3.69 3.69 0 0 0 4.53 2.61 15.31 15.31 0 1 1-10.78 18.67l11.15-3a3.73 3.73 0 1 0 7.22-1.86 3.8 3.8 0 0 0-4.61-2.66 15.21 15.21 0 1 1 10.78-18.67ZM166.57 112.32l37.67-10.09 3.35 12.49-12.69 3.4 9.48 35.38-12.56 3.37-9.48-35.38-12.43 3.33ZM208.15 101.25l29.7-8 2.79 10.39-17.15 4.6 2.08 7.77 15.18-4.01 2.83 10.58-15.17 4.06 2.36 8.8 17.15-4.59 2.74 10.26-29.7 8ZM272 103.14l14.69-22.93 5.68-1.52 12.81 47.81-12.62 3.38-6.56-24.55-9.43 14.76-15.6-8 6.56 24.48-12.66 3.43-12.81-47.81 5.68-1.52ZM318.73 87.33a3.81 3.81 0 0 0-4.61-2.66 3.75 3.75 0 0 0-2.59 4.59 3.69 3.69 0 0 0 4.52 2.62 15.31 15.31 0 1 1-10.78 18.67l11.16-3a3.71 3.71 0 0 0 4.54 2.68 3.75 3.75 0 0 0 2.68-4.55A3.81 3.81 0 0 0 319 103a15.21 15.21 0 1 1 10.78-18.67ZM118.72 181.12l4.56 17 15.17-4.07-4.56-17 12.56-3.36 12.81 47.81-12.56 3.36-4.88-18.23-15.18 4.07 4.89 18.23-12.53 3.36-12.81-47.81ZM174.18 166.26a24.75 24.75 0 1 1-17.42 30.35 24.81 24.81 0 0 1 17.42-30.35Zm3.35 12.49A11.81 11.81 0 1 0 192 187.1a11.78 11.78 0 0 0-14.47-8.35ZM221 184.52a6.47 6.47 0 0 0 12.49-3.35l-7.7-28.75 12.65-3.42 7.76 29a19.54 19.54 0 0 1-37.74 10.11l-7.76-28.94 12.63-3.38ZM264.75 157.7a3.81 3.81 0 0 0-4.61-2.66 3.76 3.76 0 0 0-2.6 4.59 3.69 3.69 0 0 0 4.53 2.62 15.31 15.31 0 1 1-10.78 18.67l11.16-3a3.71 3.71 0 0 0 4.54 2.68 3.75 3.75 0 0 0 2.68-4.55 3.81 3.81 0 0 0-4.61-2.66 15.21 15.21 0 1 1 10.78-18.67ZM276.06 139l29.7-8 2.79 10.39L291.4 146l2.08 7.78 15.18-4.06 2.83 10.58-15.17 4.06 2.36 8.8 17.14-4.59 2.75 10.26-29.7 8Z"/></g></svg>